<svg id="visual" viewBox="0 0 900 600" width="900" height="600" xmlns="http://www.w3.org/2000/svg" xmlns:xlink="http://www.w3.org/1999/xlink" version="1.1"><rect x="0" y="0" width="900" height="600" fill="#ffffff"></rect><defs><linearGradient id="grad1_0" x1="33.3%" y1="0%" x2="100%" y2="100%"><stop offset="20%" stop-color="#ffffff" stop-opacity="1"></stop><stop offset="80%" stop-color="#ffffff" stop-opacity="1"></stop></linearGradient></defs><defs><linearGradient id="grad2_0" x1="0%" y1="0%" x2="66.7%" y2="100%"><stop offset="20%" stop-color="#ffffff" stop-opacity="1"></stop><stop offset="80%" stop-color="#ffffff" stop-opacity="1"></stop></linearGradient></defs><g transform="translate(900, 0)"><path d="M0 405.6C-58.8 406 -117.6 406.4 -155.2 374.7C-192.8 343.1 -209.2 279.5 -237.6 237.6C-266 195.6 -306.3 175.3 -336.3 139.3C-366.3 103.3 -386 51.7 -405.6 0L0 0Z" fill="#FBAE3C"></path></g><g transform="translate(0, 600)"><path d="M0 -405.6C62.2 -410.4 124.5 -415.1 155.2 -374.7C186 -334.4 185.2 -248.9 202.2 -202.2C219.3 -155.6 254.2 -147.8 291 -120.5C327.9 -93.3 366.8 -46.7 405.6 0L0 0Z" fill="#FBAE3C"></path></g></svg>