<svg id="visual" viewBox="0 0 900 600" width="900" height="600" xmlns="http://www.w3.org/2000/svg" xmlns:xlink="http://www.w3.org/1999/xlink" version="1.1"><rect x="0" y="0" width="900" height="600" fill="#ff821c"></rect><path d="M0 140L180 162L360 142L540 166L720 209L900 146L900 601L720 601L540 601L360 601L180 601L0 601Z" fill="#f5730a"></path><path d="M0 237L180 269L360 230L540 209L720 270L900 219L900 601L720 601L540 601L360 601L180 601L0 601Z" fill="#df6009"></path><path d="M0 304L180 256L360 255L540 302L720 275L900 265L900 601L720 601L540 601L360 601L180 601L0 601Z" fill="#c94d08"></path><path d="M0 336L180 355L360 343L540 378L720 323L900 329L900 601L720 601L540 601L360 601L180 601L0 601Z" fill="#b33b06"></path><path d="M0 434L180 417L360 460L540 406L720 432L900 458L900 601L720 601L540 601L360 601L180 601L0 601Z" fill="#9d2804"></path><path d="M0 517L180 528L360 515L540 523L720 516L900 546L900 601L720 601L540 601L360 601L180 601L0 601Z" fill="#871400"></path></svg>