<svg id="visual" viewBox="0 0 900 600" width="900" height="600" xmlns="http://www.w3.org/2000/svg" xmlns:xlink="http://www.w3.org/1999/xlink" version="1.1"><rect x="0" y="0" width="900" height="600" fill="#1d1d1d"></rect><path d="M0 180L21.5 184.7C43 189.3 86 198.7 128.8 196.5C171.7 194.3 214.3 180.7 257.2 168.3C300 156 343 145 385.8 158.8C428.7 172.7 471.3 211.3 514.2 206.7C557 202 600 154 642.8 137.8C685.7 121.7 728.3 137.3 771.2 135C814 132.7 857 112.3 878.5 102.2L900 92L900 601L878.5 601C857 601 814 601 771.2 601C728.3 601 685.7 601 642.8 601C600 601 557 601 514.2 601C471.3 601 428.7 601 385.8 601C343 601 300 601 257.2 601C214.3 601 171.7 601 128.8 601C86 601 43 601 21.5 601L0 601Z" fill="#715df2"></path><path d="M0 158L21.5 176C43 194 86 230 128.8 250.2C171.7 270.3 214.3 274.7 257.2 278C300 281.3 343 283.7 385.8 266.8C428.7 250 471.3 214 514.2 203C557 192 600 206 642.8 210.2C685.7 214.3 728.3 208.7 771.2 215.2C814 221.7 857 240.3 878.5 249.7L900 259L900 601L878.5 601C857 601 814 601 771.2 601C728.3 601 685.7 601 642.8 601C600 601 557 601 514.2 601C471.3 601 428.7 601 385.8 601C343 601 300 601 257.2 601C214.3 601 171.7 601 128.8 601C86 601 43 601 21.5 601L0 601Z" fill="#ac4bde"></path><path d="M0 331L21.5 324.2C43 317.3 86 303.7 128.8 305.7C171.7 307.7 214.3 325.3 257.2 310.8C300 296.3 343 249.7 385.8 244.3C428.7 239 471.3 275 514.2 274.8C557 274.7 600 238.3 642.8 222.8C685.7 207.3 728.3 212.7 771.2 227.3C814 242 857 266 878.5 278L900 290L900 601L878.5 601C857 601 814 601 771.2 601C728.3 601 685.7 601 642.8 601C600 601 557 601 514.2 601C471.3 601 428.7 601 385.8 601C343 601 300 601 257.2 601C214.3 601 171.7 601 128.8 601C86 601 43 601 21.5 601L0 601Z" fill="#d337c5"></path><path d="M0 261L21.5 268.5C43 276 86 291 128.8 298.5C171.7 306 214.3 306 257.2 310.5C300 315 343 324 385.8 334.2C428.7 344.3 471.3 355.7 514.2 354.3C557 353 600 339 642.8 340.5C685.7 342 728.3 359 771.2 364.5C814 370 857 364 878.5 361L900 358L900 601L878.5 601C857 601 814 601 771.2 601C728.3 601 685.7 601 642.8 601C600 601 557 601 514.2 601C471.3 601 428.7 601 385.8 601C343 601 300 601 257.2 601C214.3 601 171.7 601 128.8 601C86 601 43 601 21.5 601L0 601Z" fill="#ee21a9"></path><path d="M0 321L21.5 331.3C43 341.7 86 362.3 128.8 366.2C171.7 370 214.3 357 257.2 353.2C300 349.3 343 354.7 385.8 352.3C428.7 350 471.3 340 514.2 334.8C557 329.7 600 329.3 642.8 328.3C685.7 327.3 728.3 325.7 771.2 326C814 326.3 857 328.7 878.5 329.8L900 331L900 601L878.5 601C857 601 814 601 771.2 601C728.3 601 685.7 601 642.8 601C600 601 557 601 514.2 601C471.3 601 428.7 601 385.8 601C343 601 300 601 257.2 601C214.3 601 171.7 601 128.8 601C86 601 43 601 21.5 601L0 601Z" fill="#ff198b"></path><path d="M0 439L21.5 433.5C43 428 86 417 128.8 406.7C171.7 396.3 214.3 386.7 257.2 382.5C300 378.3 343 379.7 385.8 383.7C428.7 387.7 471.3 394.3 514.2 391.8C557 389.3 600 377.7 642.8 369.7C685.7 361.7 728.3 357.3 771.2 357.5C814 357.7 857 362.3 878.5 364.7L900 367L900 601L878.5 601C857 601 814 601 771.2 601C728.3 601 685.7 601 642.8 601C600 601 557 601 514.2 601C471.3 601 428.7 601 385.8 601C343 601 300 601 257.2 601C214.3 601 171.7 601 128.8 601C86 601 43 601 21.5 601L0 601Z" fill="#ff2b6d"></path><path d="M0 419L21.5 423.7C43 428.3 86 437.7 128.8 448.3C171.7 459 214.3 471 257.2 474.7C300 478.3 343 473.7 385.8 468.3C428.7 463 471.3 457 514.2 448C557 439 600 427 642.8 423.2C685.7 419.3 728.3 423.7 771.2 427.2C814 430.7 857 433.3 878.5 434.7L900 436L900 601L878.5 601C857 601 814 601 771.2 601C728.3 601 685.7 601 642.8 601C600 601 557 601 514.2 601C471.3 601 428.7 601 385.8 601C343 601 300 601 257.2 601C214.3 601 171.7 601 128.8 601C86 601 43 601 21.5 601L0 601Z" fill="#ff4550"></path><path d="M0 475L21.5 479.3C43 483.7 86 492.3 128.8 494.5C171.7 496.7 214.3 492.3 257.2 487.3C300 482.3 343 476.7 385.8 482.5C428.7 488.3 471.3 505.7 514.2 504.3C557 503 600 483 642.8 473.8C685.7 464.7 728.3 466.3 771.2 471.3C814 476.3 857 484.7 878.5 488.8L900 493L900 601L878.5 601C857 601 814 601 771.2 601C728.3 601 685.7 601 642.8 601C600 601 557 601 514.2 601C471.3 601 428.7 601 385.8 601C343 601 300 601 257.2 601C214.3 601 171.7 601 128.8 601C86 601 43 601 21.5 601L0 601Z" fill="#ff5f34"></path><path d="M0 559L21.5 560.5C43 562 86 565 128.8 562.8C171.7 560.7 214.3 553.3 257.2 548.3C300 543.3 343 540.7 385.8 544C428.7 547.3 471.3 556.7 514.2 561.7C557 566.7 600 567.3 642.8 567.8C685.7 568.3 728.3 568.7 771.2 561.5C814 554.3 857 539.7 878.5 532.3L900 525L900 601L878.5 601C857 601 814 601 771.2 601C728.3 601 685.7 601 642.8 601C600 601 557 601 514.2 601C471.3 601 428.7 601 385.8 601C343 601 300 601 257.2 601C214.3 601 171.7 601 128.8 601C86 601 43 601 21.5 601L0 601Z" fill="#f7770f"></path></svg>