<svg id="visual" viewBox="0 0 900 600" width="900" height="600" xmlns="http://www.w3.org/2000/svg" xmlns:xlink="http://www.w3.org/1999/xlink" version="1.1"><path d="M0 67L11.5 69C23 71 46 75 69 82C92 89 115 99 138.2 115C161.3 131 184.7 153 207.8 147C231 141 254 107 277 103C300 99 323 125 346 147C369 169 392 187 415.2 200C438.3 213 461.7 221 484.8 213C508 205 531 181 554 179C577 177 600 197 623 183C646 169 669 121 692.2 120C715.3 119 738.7 165 761.8 164C785 163 808 115 831 94C854 73 877 79 888.5 82L900 85L900 0L888.5 0C877 0 854 0 831 0C808 0 785 0 761.8 0C738.7 0 715.3 0 692.2 0C669 0 646 0 623 0C600 0 577 0 554 0C531 0 508 0 484.8 0C461.7 0 438.3 0 415.2 0C392 0 369 0 346 0C323 0 300 0 277 0C254 0 231 0 207.8 0C184.7 0 161.3 0 138.2 0C115 0 92 0 69 0C46 0 23 0 11.5 0L0 0Z" fill="#715df2"></path><path d="M0 187L11.5 181C23 175 46 163 69 167C92 171 115 191 138.2 201C161.3 211 184.7 211 207.8 200C231 189 254 167 277 168C300 169 323 193 346 215C369 237 392 257 415.2 269C438.3 281 461.7 285 484.8 290C508 295 531 301 554 294C577 287 600 267 623 238C646 209 669 171 692.2 187C715.3 203 738.7 273 761.8 279C785 285 808 227 831 196C854 165 877 161 888.5 159L900 157L900 83L888.5 80C877 77 854 71 831 92C808 113 785 161 761.8 162C738.7 163 715.3 117 692.2 118C669 119 646 167 623 181C600 195 577 175 554 177C531 179 508 203 484.8 211C461.7 219 438.3 211 415.2 198C392 185 369 167 346 145C323 123 300 97 277 101C254 105 231 139 207.8 145C184.7 151 161.3 129 138.2 113C115 97 92 87 69 80C46 73 23 69 11.5 67L0 65Z" fill="#b249db"></path><path d="M0 253L11.5 245C23 237 46 221 69 223C92 225 115 245 138.2 256C161.3 267 184.7 269 207.8 255C231 241 254 211 277 205C300 199 323 217 346 236C369 255 392 275 415.2 295C438.3 315 461.7 335 484.8 340C508 345 531 335 554 327C577 319 600 313 623 286C646 259 669 211 692.2 221C715.3 231 738.7 299 761.8 306C785 313 808 259 831 234C854 209 877 213 888.5 215L900 217L900 155L888.5 157C877 159 854 163 831 194C808 225 785 283 761.8 277C738.7 271 715.3 201 692.2 185C669 169 646 207 623 236C600 265 577 285 554 292C531 299 508 293 484.8 288C461.7 283 438.3 279 415.2 267C392 255 369 235 346 213C323 191 300 167 277 166C254 165 231 187 207.8 198C184.7 209 161.3 209 138.2 199C115 189 92 169 69 165C46 161 23 173 11.5 179L0 185Z" fill="#dc30bd"></path><path d="M0 439L11.5 418C23 397 46 355 69 344C92 333 115 353 138.2 371C161.3 389 184.7 405 207.8 405C231 405 254 389 277 378C300 367 323 361 346 366C369 371 392 387 415.2 400C438.3 413 461.7 423 484.8 424C508 425 531 417 554 413C577 409 600 409 623 406C646 403 669 397 692.2 407C715.3 417 738.7 443 761.8 438C785 433 808 397 831 381C854 365 877 369 888.5 371L900 373L900 215L888.5 213C877 211 854 207 831 232C808 257 785 311 761.8 304C738.7 297 715.3 229 692.2 219C669 209 646 257 623 284C600 311 577 317 554 325C531 333 508 343 484.8 338C461.7 333 438.3 313 415.2 293C392 273 369 253 346 234C323 215 300 197 277 203C254 209 231 239 207.8 253C184.7 267 161.3 265 138.2 254C115 243 92 223 69 221C46 219 23 235 11.5 243L0 251Z" fill="#f71b9c"></path><path d="M0 469L11.5 453C23 437 46 405 69 395C92 385 115 397 138.2 411C161.3 425 184.7 441 207.8 439C231 437 254 417 277 403C300 389 323 381 346 391C369 401 392 429 415.2 445C438.3 461 461.7 465 484.8 464C508 463 531 457 554 451C577 445 600 439 623 435C646 431 669 429 692.2 437C715.3 445 738.7 463 761.8 456C785 449 808 417 831 405C854 393 877 401 888.5 405L900 409L900 371L888.5 369C877 367 854 363 831 379C808 395 785 431 761.8 436C738.7 441 715.3 415 692.2 405C669 395 646 401 623 404C600 407 577 407 554 411C531 415 508 423 484.8 422C461.7 421 438.3 411 415.2 398C392 385 369 369 346 364C323 359 300 365 277 376C254 387 231 403 207.8 403C184.7 403 161.3 387 138.2 369C115 351 92 331 69 342C46 353 23 395 11.5 416L0 437Z" fill="#ff217a"></path><path d="M0 517L11.5 504C23 491 46 465 69 453C92 441 115 443 138.2 453C161.3 463 184.7 481 207.8 480C231 479 254 459 277 448C300 437 323 435 346 445C369 455 392 477 415.2 488C438.3 499 461.7 499 484.8 494C508 489 531 479 554 477C577 475 600 481 623 484C646 487 669 487 692.2 493C715.3 499 738.7 511 761.8 502C785 493 808 463 831 455C854 447 877 461 888.5 468L900 475L900 407L888.5 403C877 399 854 391 831 403C808 415 785 447 761.8 454C738.7 461 715.3 443 692.2 435C669 427 646 429 623 433C600 437 577 443 554 449C531 455 508 461 484.8 462C461.7 463 438.3 459 415.2 443C392 427 369 399 346 389C323 379 300 387 277 401C254 415 231 435 207.8 437C184.7 439 161.3 423 138.2 409C115 395 92 383 69 393C46 403 23 435 11.5 451L0 467Z" fill="#ff3d59"></path><path d="M0 547L11.5 542C23 537 46 527 69 521C92 515 115 513 138.2 518C161.3 523 184.7 535 207.8 538C231 541 254 535 277 531C300 527 323 525 346 527C369 529 392 535 415.2 541C438.3 547 461.7 553 484.8 557C508 561 531 563 554 555C577 547 600 529 623 524C646 519 669 527 692.2 534C715.3 541 738.7 547 761.8 542C785 537 808 521 831 520C854 519 877 533 888.5 540L900 547L900 473L888.5 466C877 459 854 445 831 453C808 461 785 491 761.8 500C738.7 509 715.3 497 692.2 491C669 485 646 485 623 482C600 479 577 473 554 475C531 477 508 487 484.8 492C461.7 497 438.3 497 415.2 486C392 475 369 453 346 443C323 433 300 435 277 446C254 457 231 477 207.8 478C184.7 479 161.3 461 138.2 451C115 441 92 439 69 451C46 463 23 489 11.5 502L0 515Z" fill="#ff5b38"></path><path d="M0 601L11.5 601C23 601 46 601 69 601C92 601 115 601 138.2 601C161.3 601 184.7 601 207.8 601C231 601 254 601 277 601C300 601 323 601 346 601C369 601 392 601 415.2 601C438.3 601 461.7 601 484.8 601C508 601 531 601 554 601C577 601 600 601 623 601C646 601 669 601 692.2 601C715.3 601 738.7 601 761.8 601C785 601 808 601 831 601C854 601 877 601 888.5 601L900 601L900 545L888.5 538C877 531 854 517 831 518C808 519 785 535 761.8 540C738.7 545 715.3 539 692.2 532C669 525 646 517 623 522C600 527 577 545 554 553C531 561 508 559 484.8 555C461.7 551 438.3 545 415.2 539C392 533 369 527 346 525C323 523 300 525 277 529C254 533 231 539 207.8 536C184.7 533 161.3 521 138.2 516C115 511 92 513 69 519C46 525 23 535 11.5 540L0 545Z" fill="#f7770f"></path></svg>